<?xml version="1.0" encoding="UTF-8"?>
<svg xmlns="http://www.w3.org/2000/svg" version="1.1" width="500px" height="500px" style="shape-rendering:geometricPrecision; text-rendering:geometricPrecision; image-rendering:optimizeQuality; fill-rule:evenodd; clip-rule:evenodd" xmlns:xlink="http://www.w3.org/1999/xlink">
<g><path style="opacity:1" fill="#fefefe" d="M -0.5,-0.5 C 166.167,-0.5 332.833,-0.5 499.5,-0.5C 499.5,166.167 499.5,332.833 499.5,499.5C 332.833,499.5 166.167,499.5 -0.5,499.5C -0.5,332.833 -0.5,166.167 -0.5,-0.5 Z"/></g>
<g><path style="opacity:1" fill="#325369" d="M 246.5,23.5 C 250.511,23.5016 254.178,24.6683 257.5,27C 295.918,49.6262 334.418,72.1262 373,94.5C 373.667,142.833 373.667,191.167 373,239.5C 331.809,264.029 290.142,287.696 248,310.5C 233.653,303.074 219.486,295.241 205.5,287C 178.752,271.544 152.252,255.711 126,239.5C 125.333,191.167 125.333,142.833 126,94.5C 165.983,70.4289 206.15,46.7622 246.5,23.5 Z"/></g>
<g><path style="opacity:1" fill="#aafc7a" d="M 136.5,214.5 C 135.501,176.337 135.168,138.004 135.5,99.5C 169.33,79.1967 203.33,59.03 237.5,39C 238.332,38.3123 238.998,38.479 239.5,39.5C 204.903,97.6963 170.57,156.03 136.5,214.5 Z"/></g>
<g><path style="opacity:1" fill="#75e73a" d="M 363.5,99.5 C 363.832,139.004 363.499,178.337 362.5,217.5C 328.361,157.893 293.695,98.5601 258.5,39.5C 259.002,38.479 259.668,38.3123 260.5,39C 294.56,59.6941 328.893,79.8608 363.5,99.5 Z"/></g>
<g><path style="opacity:1" fill="#b2ced6" d="M 243.5,50.5 C 244.496,65.324 244.829,80.324 244.5,95.5C 233.261,95.6091 222.928,98.6091 213.5,104.5C 213.167,104.167 212.833,103.833 212.5,103.5C 223.097,85.97 233.431,68.3033 243.5,50.5 Z"/></g>
<g><path style="opacity:1" fill="#9cb4be" d="M 253.5,49.5 C 264.726,67.6042 275.726,85.9375 286.5,104.5C 286.333,104.833 286.167,105.167 286,105.5C 276.049,99.468 265.216,96.1347 253.5,95.5C 253.5,80.1667 253.5,64.8333 253.5,49.5 Z"/></g>
<g><path style="opacity:1" fill="#73b072" d="M 135.5,99.5 C 135.168,138.004 135.501,176.337 136.5,214.5C 136.013,215.473 135.513,216.473 135,217.5C 134.169,177.998 134.335,138.665 135.5,99.5 Z"/></g>
<g><path style="opacity:1" fill="#3d6e5f" d="M 363.5,99.5 C 364.665,139.331 364.831,179.331 364,219.5C 363.283,218.956 362.783,218.289 362.5,217.5C 363.499,178.337 363.832,139.004 363.5,99.5 Z"/></g>
<g><path style="opacity:1" fill="#ebfae1" d="M 192.5,193.5 C 191.503,193.53 190.836,193.03 190.5,192C 179.284,155.44 190.284,127.773 223.5,109C 226.72,107.648 230.053,106.814 233.5,106.5C 236.554,105.679 239.554,105.679 242.5,106.5C 225.557,135.392 208.89,164.392 192.5,193.5 Z"/></g>
<g><path style="opacity:1" fill="#d0e8c2" d="M 192.5,193.5 C 208.89,164.392 225.557,135.392 242.5,106.5C 239.554,105.679 236.554,105.679 233.5,106.5C 233.918,105.778 234.584,105.278 235.5,105C 238.482,104.502 241.482,104.335 244.5,104.5C 244.833,124.511 244.5,144.511 243.5,164.5C 226.34,173.987 209.34,183.654 192.5,193.5 Z"/></g>
<g><path style="opacity:1" fill="#91bc89" d="M 258.5,105.5 C 257.5,105.5 256.5,105.5 255.5,105.5C 254.338,124.662 254.171,143.996 255,163.5C 255.717,164.044 256.217,164.711 256.5,165.5C 255.504,165.586 254.671,165.252 254,164.5C 253.5,144.503 253.333,124.503 253.5,104.5C 255.415,104.216 257.081,104.549 258.5,105.5 Z"/></g>
<g><path style="opacity:1" fill="#d0e8c2" d="M 255.5,105.5 C 256.5,105.5 257.5,105.5 258.5,105.5C 279.616,108.969 295.449,119.969 306,138.5C 314.116,156.602 314.616,174.935 307.5,193.5C 306.743,194.773 306.077,194.773 305.5,193.5C 305.649,192.448 305.483,191.448 305,190.5C 287.972,162.44 271.472,134.106 255.5,105.5 Z"/></g>
<g><path style="opacity:1" fill="#acd991" d="M 255.5,105.5 C 271.472,134.106 287.972,162.44 305,190.5C 305.483,191.448 305.649,192.448 305.5,193.5C 288.996,184.416 272.663,175.083 256.5,165.5C 256.217,164.711 255.717,164.044 255,163.5C 254.171,143.996 254.338,124.662 255.5,105.5 Z"/></g>
<g><path style="opacity:1" fill="#b1cdd5" d="M 175.5,165.5 C 175.912,176.918 178.579,187.918 183.5,198.5C 169.868,206.685 156.202,214.519 142.5,222C 153.902,203.358 164.902,184.524 175.5,165.5 Z"/></g>
<g><path style="opacity:1" fill="#9bb3bd" d="M 321.5,164.5 C 332.892,182.938 344.059,201.604 355,220.5C 355.688,221.332 355.521,221.998 354.5,222.5C 340.926,215.224 327.926,207.224 315.5,198.5C 319.875,187.582 321.875,176.248 321.5,164.5 Z"/></g>
<g><path style="opacity:1" fill="#93c374" d="M 300.5,204.5 C 266.167,203.167 231.833,203.167 197.5,204.5C 196.209,203.458 196.209,202.292 197.5,201C 214.601,191.033 231.768,181.2 249,171.5C 266.745,181.957 284.578,192.29 302.5,202.5C 302.145,203.522 301.478,204.189 300.5,204.5 Z"/></g>
<g><path style="opacity:1" fill="#abd990" d="M 300.5,204.5 C 287.557,221.972 270.223,230.972 248.5,231.5C 226.862,231.182 209.862,222.182 197.5,204.5C 231.833,203.167 266.167,203.167 300.5,204.5 Z"/></g>
<g><path style="opacity:1" fill="#648087" d="M 185.5,207.5 C 186.552,207.351 187.552,207.517 188.5,208C 194.744,217.411 202.744,224.911 212.5,230.5C 190.5,231.833 168.5,231.833 146.5,230.5C 159.719,223.063 172.719,215.396 185.5,207.5 Z"/></g>
<g><path style="opacity:1" fill="#648087" d="M 309.5,207.5 C 323.283,214.893 336.95,222.56 350.5,230.5C 329.167,231.833 307.833,231.833 286.5,230.5C 295.855,224.479 303.521,216.812 309.5,207.5 Z"/></g>
<g><path style="opacity:1" fill="#428547" d="M 256.5,239.5 C 256.5,239.833 256.5,240.167 256.5,240.5C 219.663,240.168 182.996,240.502 146.5,241.5C 145.957,241.44 145.624,241.107 145.5,240.5C 182.494,239.5 219.494,239.167 256.5,239.5 Z"/></g>
<g><path style="opacity:1" fill="#438844" d="M 256.5,240.5 C 256.5,240.167 256.5,239.833 256.5,239.5C 288.507,239.167 320.507,239.5 352.5,240.5C 352.376,241.107 352.043,241.44 351.5,241.5C 320.004,240.502 288.338,240.168 256.5,240.5 Z"/></g>
<g><path style="opacity:1" fill="#5bcb1c" d="M 146.5,241.5 C 182.996,240.502 219.663,240.168 256.5,240.5C 288.338,240.168 320.004,240.502 351.5,241.5C 317.427,261.621 283.26,281.621 249,301.5C 214.74,281.621 180.573,261.621 146.5,241.5 Z"/></g>
<g><path style="opacity:1" fill="#3c793b" d="M 81.5,335.5 C 82.9873,340.769 83.8206,346.102 84,351.5C 81.0392,344.041 75.5392,340.375 67.5,340.5C 66.0813,339.549 64.4147,339.216 62.5,339.5C 62.1702,356.009 62.5036,372.342 63.5,388.5C 63.6696,391.204 65.0029,392.871 67.5,393.5C 61.5852,394.649 54.9186,394.816 47.5,394C 50.4207,393.248 52.0874,391.415 52.5,388.5C 53.4964,372.342 53.8298,356.009 53.5,339.5C 51.2646,339.205 49.2646,339.539 47.5,340.5C 40.0318,340.955 34.6985,344.622 31.5,351.5C 31.1667,351.167 30.8333,350.833 30.5,350.5C 32.1489,345.238 33.4822,339.904 34.5,334.5C 50.2444,334.183 65.911,334.516 81.5,335.5 Z"/></g>
<g><path style="opacity:1" fill="#edefed" d="M 85.5,334.5 C 85.5,335.833 86.1667,336.5 87.5,336.5C 89.1733,337.343 90.34,338.676 91,340.5C 91.6667,356.833 91.6667,373.167 91,389.5C 89.9513,391.384 88.4513,392.718 86.5,393.5C 87.9584,380.785 87.7918,368.118 86,355.5C 85.6827,353.699 85.016,353.366 84,354.5C 79.6099,352.054 75.1099,349.721 70.5,347.5C 68.8662,347.968 67.6995,348.968 67,350.5C 66.2551,364.855 66.4218,379.188 67.5,393.5C 65.0029,392.871 63.6696,391.204 63.5,388.5C 63.5,372.5 63.5,356.5 63.5,340.5C 64.8333,340.5 66.1667,340.5 67.5,340.5C 75.5392,340.375 81.0392,344.041 84,351.5C 83.8206,346.102 82.9873,340.769 81.5,335.5C 83.1951,336.826 84.5284,336.493 85.5,334.5 Z"/></g>
<g><path style="opacity:1" fill="#97b797" d="M 85.5,334.5 C 99.0105,334.171 112.344,334.504 125.5,335.5C 112.656,335.171 99.989,335.505 87.5,336.5C 86.1667,336.5 85.5,335.833 85.5,334.5 Z"/></g>
<g><path style="opacity:1" fill="#97b797" d="M 161.5,336.5 C 155.5,335.167 149.5,335.167 143.5,336.5C 142.624,336.631 141.957,336.298 141.5,335.5C 148.833,334.167 156.167,334.167 163.5,335.5C 163.043,336.298 162.376,336.631 161.5,336.5 Z"/></g>
<g><path style="opacity:1" fill="#97b797" d="M 191.5,336.5 C 184.5,335.167 177.5,335.167 170.5,336.5C 169.624,336.631 168.957,336.298 168.5,335.5C 176.5,334.167 184.5,334.167 192.5,335.5C 192.376,336.107 192.043,336.44 191.5,336.5 Z"/></g>
<g><path style="opacity:1" fill="#9ab99a" d="M 224.5,336.5 C 219.5,335.167 214.5,335.167 209.5,336.5C 208.624,336.631 207.957,336.298 207.5,335.5C 213.5,334.167 219.5,334.167 225.5,335.5C 225.376,336.107 225.043,336.44 224.5,336.5 Z"/></g>
<g><path style="opacity:1" fill="#98b798" d="M 257.5,335.5 C 248.651,335.174 239.984,335.507 231.5,336.5C 230.957,336.44 230.624,336.107 230.5,335.5C 239.658,334.178 248.658,334.178 257.5,335.5 Z"/></g>
<g><path style="opacity:1" fill="#96b696" d="M 331.5,336.5 C 331.167,336.5 330.833,336.5 330.5,336.5C 324.5,335.167 318.5,335.167 312.5,336.5C 311.957,336.44 311.624,336.107 311.5,335.5C 314.833,335.167 318.167,334.833 321.5,334.5C 325.239,334.514 328.572,335.18 331.5,336.5 Z"/></g>
<g><path style="opacity:1" fill="#98b798" d="M 378.5,335.5 C 369.651,335.174 360.984,335.507 352.5,336.5C 351.957,336.44 351.624,336.107 351.5,335.5C 360.658,334.178 369.658,334.178 378.5,335.5 Z"/></g>
<g><path style="opacity:1" fill="#94b594" d="M 456.5,334.5 C 443.167,335.167 429.833,335.833 416.5,336.5C 415.624,336.631 414.957,336.298 414.5,335.5C 428.484,334.501 442.484,334.167 456.5,334.5 Z"/></g>
<g><path style="opacity:1" fill="#387638" d="M 87.5,336.5 C 99.989,335.505 112.656,335.171 125.5,335.5C 128.546,335.725 130.879,337.058 132.5,339.5C 134.02,343.7 133.52,347.7 131,351.5C 127.77,354.531 124.27,357.197 120.5,359.5C 128.448,369.054 134.615,379.72 139,391.5C 142.488,394.462 145.155,393.795 147,389.5C 147.667,372.833 147.667,356.167 147,339.5C 145.961,338.29 144.794,337.29 143.5,336.5C 149.5,335.167 155.5,335.167 161.5,336.5C 160.833,336.5 160.5,336.833 160.5,337.5C 159.21,338.058 158.377,339.058 158,340.5C 157.333,356.5 157.333,372.5 158,388.5C 158.608,390.066 159.442,391.4 160.5,392.5C 161.71,392.932 162.71,393.599 163.5,394.5C 150.163,394.667 136.829,394.5 123.5,394C 126.29,391.79 127.123,388.956 126,385.5C 123.174,379.178 119.841,373.178 116,367.5C 111.898,362.87 107.231,362.537 102,366.5C 101.333,374.167 101.333,381.833 102,389.5C 102.748,391.751 104.248,393.084 106.5,393.5C 99.8333,394.833 93.1667,394.833 86.5,393.5C 88.4513,392.718 89.9513,391.384 91,389.5C 91.6667,373.167 91.6667,356.833 91,340.5C 90.34,338.676 89.1733,337.343 87.5,336.5 Z"/></g>
<g><path style="opacity:1" fill="#387637" d="M 170.5,336.5 C 177.5,335.167 184.5,335.167 191.5,336.5C 190.957,336.56 190.624,336.893 190.5,337.5C 197.824,343.831 205.158,350.164 212.5,356.5C 212.56,357.043 212.893,357.376 213.5,357.5C 214.815,352.014 214.815,346.68 213.5,341.5C 213.33,338.796 211.997,337.129 209.5,336.5C 214.5,335.167 219.5,335.167 224.5,336.5C 222.248,336.916 220.748,338.249 220,340.5C 219.333,356.167 219.333,371.833 220,387.5C 220.739,390.573 222.572,392.74 225.5,394C 219.078,394.814 213.411,394.647 208.5,393.5C 210.371,393.141 211.871,392.141 213,390.5C 213.928,383.06 213.594,375.726 212,368.5C 201.374,360.21 191.041,351.543 181,342.5C 180.333,358.167 180.333,373.833 181,389.5C 181.748,391.751 183.248,393.084 185.5,393.5C 180.589,394.647 174.922,394.814 168.5,394C 171.057,393.315 172.891,391.815 174,389.5C 174.667,373.167 174.667,356.833 174,340.5C 173.34,338.676 172.173,337.343 170.5,336.5 Z"/></g>
<g><path style="opacity:1" fill="#3a7739" d="M 231.5,336.5 C 239.984,335.507 248.651,335.174 257.5,335.5C 264.375,335.903 270.708,337.903 276.5,341.5C 290.209,354.673 292.043,369.34 282,385.5C 277.168,390.332 271.335,393.165 264.5,394C 252.992,394.826 241.659,394.659 230.5,393.5C 233.415,393.087 235.248,391.421 236,388.5C 236.667,372.833 236.667,357.167 236,341.5C 235.388,338.885 233.888,337.219 231.5,336.5 Z"/></g>
<g><path style="opacity:1" fill="#397739" d="M 312.5,336.5 C 318.5,335.167 324.5,335.167 330.5,336.5C 329.305,336.866 328.639,337.699 328.5,339C 334.333,355.833 340.167,372.667 346,389.5C 346.833,391.667 348.333,393.167 350.5,394C 343.833,394.667 337.167,394.667 330.5,394C 333.383,392.568 334.717,390.235 334.5,387C 331.81,375.646 324.643,369.146 313,367.5C 311.833,367.833 310.667,368.167 309.5,368.5C 305.688,375.755 303.854,383.421 304,391.5C 304.816,392.823 305.983,393.489 307.5,393.5C 301.681,394.653 295.681,394.819 289.5,394C 293.028,392.135 295.528,389.301 297,385.5C 302.833,370 308.667,354.5 314.5,339C 314.361,337.699 313.695,336.866 312.5,336.5 Z"/></g>
<g><path style="opacity:1" fill="#3a7739" d="M 352.5,336.5 C 360.984,335.507 369.651,335.174 378.5,335.5C 385.375,335.903 391.708,337.903 397.5,341.5C 411.209,354.673 413.043,369.34 403,385.5C 398.168,390.332 392.335,393.165 385.5,394C 374.167,394.667 362.833,394.667 351.5,394C 354.333,393.167 356.167,391.333 357,388.5C 357.667,372.833 357.667,357.167 357,341.5C 356.388,338.885 354.888,337.219 352.5,336.5 Z"/></g>
<g><path style="opacity:1" fill="#3a783a" d="M 456.5,334.5 C 457.931,334.881 458.764,335.881 459,337.5C 460.118,342.157 460.785,346.824 461,351.5C 453.451,340.539 443.451,337.206 431,341.5C 430.502,344.817 430.335,348.15 430.5,351.5C 435.179,351.666 439.845,351.499 444.5,351C 445.859,349.796 446.859,348.296 447.5,346.5C 449.694,352.995 451.027,359.662 451.5,366.5C 450.108,364.727 448.941,362.727 448,360.5C 447.097,359.299 445.931,358.465 444.5,358C 439.934,356.691 435.267,356.191 430.5,356.5C 430.334,366.839 430.5,377.172 431,387.5C 431.903,388.701 433.069,389.535 434.5,390C 438.027,390.808 441.36,390.641 444.5,389.5C 455.257,388.254 462.757,382.587 467,372.5C 465.23,380.311 462.73,387.977 459.5,395.5C 444.545,394.682 429.545,394.182 414.5,394C 417.333,393.167 419.167,391.333 420,388.5C 420.667,372.5 420.667,356.5 420,340.5C 419.34,338.676 418.173,337.343 416.5,336.5C 429.833,335.833 443.167,335.167 456.5,334.5 Z"/></g>
<g><path style="opacity:1" fill="#f0f1f0" d="M 143.5,336.5 C 144.794,337.29 145.961,338.29 147,339.5C 147.667,356.167 147.667,372.833 147,389.5C 145.155,393.795 142.488,394.462 139,391.5C 134.615,379.72 128.448,369.054 120.5,359.5C 124.27,357.197 127.77,354.531 131,351.5C 133.52,347.7 134.02,343.7 132.5,339.5C 134.411,339.574 135.578,340.574 136,342.5C 136.667,345.5 136.667,348.5 136,351.5C 133.979,356.193 131.146,360.36 127.5,364C 132.034,371.564 136.2,379.397 140,387.5C 141.011,388.337 142.178,388.67 143.5,388.5C 143.375,371.073 143.375,353.739 143.5,336.5 Z"/></g>
<g><path style="opacity:1" fill="#e2e6e1" d="M 160.5,337.5 C 159.25,355.842 159.25,374.175 160.5,392.5C 159.442,391.4 158.608,390.066 158,388.5C 157.333,372.5 157.333,356.5 158,340.5C 158.377,339.058 159.21,338.058 160.5,337.5 Z"/></g>
<g><path style="opacity:1" fill="#eceeec" d="M 262.5,389.5 C 274.482,380.01 276.648,368.344 269,354.5C 265.783,349.642 261.283,346.976 255.5,346.5C 251.796,346.706 249.963,348.706 250,352.5C 249.333,361.833 249.333,371.167 250,380.5C 249.915,387.554 253.415,390.554 260.5,389.5C 257.36,390.641 254.027,390.808 250.5,390C 248.667,389.5 247.5,388.333 247,386.5C 246.333,371.5 246.333,356.5 247,341.5C 262.906,337.813 272.906,344.147 277,360.5C 279.009,370.988 276.175,379.821 268.5,387C 266.512,387.938 264.512,388.772 262.5,389.5 Z"/></g>
<g><path style="opacity:1" fill="#eceeec" d="M 383.5,389.5 C 395.482,380.01 397.648,368.344 390,354.5C 386.783,349.642 382.283,346.976 376.5,346.5C 372.796,346.706 370.963,348.706 371,352.5C 370.333,361.833 370.333,371.167 371,380.5C 370.915,387.554 374.415,390.554 381.5,389.5C 378.36,390.641 375.027,390.808 371.5,390C 369.667,389.5 368.5,388.333 368,386.5C 367.333,371.5 367.333,356.5 368,341.5C 383.906,337.813 393.906,344.147 398,360.5C 400.009,370.988 397.175,379.821 389.5,387C 387.512,387.938 385.512,388.772 383.5,389.5 Z"/></g>
<g><path style="opacity:1" fill="#f0f1f0" d="M 276.5,341.5 C 283.991,346.113 288.824,352.78 291,361.5C 294.249,378.835 288.082,391.335 272.5,399C 260.624,401.406 248.624,402.073 236.5,401C 232.156,399.875 230.156,397.375 230.5,393.5C 241.659,394.659 252.992,394.826 264.5,394C 271.335,393.165 277.168,390.332 282,385.5C 292.043,369.34 290.209,354.673 276.5,341.5 Z"/></g>
<g><path style="opacity:1" fill="#edeeed" d="M 330.5,336.5 C 330.833,336.5 331.167,336.5 331.5,336.5C 336.64,354.92 342.973,372.92 350.5,390.5C 351.799,389.91 352.632,388.91 353,387.5C 354.028,371.763 353.528,356.096 351.5,340.5C 351.623,339.075 351.957,337.742 352.5,336.5C 354.888,337.219 356.388,338.885 357,341.5C 357.667,357.167 357.667,372.833 357,388.5C 356.167,391.333 354.333,393.167 351.5,394C 362.833,394.667 374.167,394.667 385.5,394C 392.335,393.165 398.168,390.332 403,385.5C 413.043,369.34 411.209,354.673 397.5,341.5C 407.583,348.151 412.917,357.651 413.5,370C 411.955,388.545 401.955,398.878 383.5,401C 372.897,402.022 362.397,401.522 352,399.5C 345.516,401.668 339.016,401.834 332.5,400C 331.299,399.097 330.465,397.931 330,396.5C 331.3,385.475 326.634,378.475 316,375.5C 313.849,375.643 312.182,376.643 311,378.5C 308.897,383.302 307.731,388.302 307.5,393.5C 305.983,393.489 304.816,392.823 304,391.5C 303.854,383.421 305.688,375.755 309.5,368.5C 310.667,368.167 311.833,367.833 313,367.5C 324.643,369.146 331.81,375.646 334.5,387C 334.717,390.235 333.383,392.568 330.5,394C 337.167,394.667 343.833,394.667 350.5,394C 348.333,393.167 346.833,391.667 346,389.5C 340.167,372.667 334.333,355.833 328.5,339C 328.639,337.699 329.305,336.866 330.5,336.5 Z"/></g>
<g><path style="opacity:1" fill="#f5f5f5" d="M 103.5,339.5 C 108.511,339.334 113.511,339.501 118.5,340C 123.218,341.449 124.718,344.615 123,349.5C 117.403,356.217 110.237,360.217 101.5,361.5C 101.334,354.825 101.5,348.158 102,341.5C 102.717,340.956 103.217,340.289 103.5,339.5 Z"/></g>
<g><path style="opacity:1" fill="#fdfdfd" d="M 262.5,389.5 C 261.833,389.5 261.167,389.5 260.5,389.5C 253.415,390.554 249.915,387.554 250,380.5C 249.333,371.167 249.333,361.833 250,352.5C 249.963,348.706 251.796,346.706 255.5,346.5C 261.283,346.976 265.783,349.642 269,354.5C 276.648,368.344 274.482,380.01 262.5,389.5 Z"/></g>
<g><path style="opacity:1" fill="#fdfdfd" d="M 383.5,389.5 C 382.833,389.5 382.167,389.5 381.5,389.5C 374.415,390.554 370.915,387.554 371,380.5C 370.333,371.167 370.333,361.833 371,352.5C 370.963,348.706 372.796,346.706 376.5,346.5C 382.283,346.976 386.783,349.642 390,354.5C 397.648,368.344 395.482,380.01 383.5,389.5 Z"/></g>
<g><path style="opacity:1" fill="#a6bea6" d="M 67.5,340.5 C 66.1667,340.5 64.8333,340.5 63.5,340.5C 63.5,356.5 63.5,372.5 63.5,388.5C 62.5036,372.342 62.1702,356.009 62.5,339.5C 64.4147,339.216 66.0813,339.549 67.5,340.5 Z"/></g>
<g><path style="opacity:1" fill="#7ea47e" d="M 213.5,341.5 C 214.815,346.68 214.815,352.014 213.5,357.5C 212.893,357.376 212.56,357.043 212.5,356.5C 213.487,351.695 213.821,346.695 213.5,341.5 Z"/></g>
<g><path style="opacity:1" fill="#7ca37c" d="M 47.5,340.5 C 49.2646,339.539 51.2646,339.205 53.5,339.5C 53.8298,356.009 53.4964,372.342 52.5,388.5C 52.5,372.5 52.5,356.5 52.5,340.5C 50.8333,340.5 49.1667,340.5 47.5,340.5 Z"/></g>
<g><path style="opacity:1" fill="#e8eae7" d="M 318.5,342.5 C 323.142,350.925 326.309,359.925 328,369.5C 323.137,365.823 317.637,363.823 311.5,363.5C 313.632,356.438 315.965,349.438 318.5,342.5 Z"/></g>
<g><path style="opacity:1" fill="#eff0ef" d="M 208.5,393.5 C 211.034,386.731 210.868,380.064 208,373.5C 201.778,367.644 195.278,362.144 188.5,357C 187.207,356.51 185.873,356.343 184.5,356.5C 184.227,368.871 184.56,381.204 185.5,393.5C 183.248,393.084 181.748,391.751 181,389.5C 180.333,373.833 180.333,358.167 181,342.5C 191.041,351.543 201.374,360.21 212,368.5C 213.594,375.726 213.928,383.06 213,390.5C 211.871,392.141 210.371,393.141 208.5,393.5 Z"/></g>
<g><path style="opacity:1" fill="#edeeed" d="M 451.5,366.5 C 451.083,367.124 450.416,367.457 449.5,367.5C 445.942,365.888 442.275,364.555 438.5,363.5C 437.446,363.68 436.446,364.013 435.5,364.5C 434.335,371.811 434.169,379.144 435,386.5C 437.546,389.186 440.713,390.186 444.5,389.5C 441.36,390.641 438.027,390.808 434.5,390C 433.069,389.535 431.903,388.701 431,387.5C 430.5,377.172 430.334,366.839 430.5,356.5C 435.267,356.191 439.934,356.691 444.5,358C 445.931,358.465 447.097,359.299 448,360.5C 448.941,362.727 450.108,364.727 451.5,366.5 Z"/></g>
<g><path style="opacity:1" fill="#f0f0f0" d="M 163.5,394.5 C 163.061,398.106 161.061,400.272 157.5,401C 149.162,400.445 140.828,400.612 132.5,401.5C 123.847,401 120.014,396.334 121,387.5C 118.797,382.256 115.964,377.422 112.5,373C 110.105,370.855 107.938,371.022 106,373.5C 105.287,380.203 105.454,386.87 106.5,393.5C 104.248,393.084 102.748,391.751 102,389.5C 101.333,381.833 101.333,374.167 102,366.5C 107.231,362.537 111.898,362.87 116,367.5C 119.841,373.178 123.174,379.178 126,385.5C 127.123,388.956 126.29,391.79 123.5,394C 136.829,394.5 150.163,394.667 163.5,394.5 Z"/></g>
<g><path style="opacity:1" fill="#3d793c" d="M 159.5,416.5 C 161.103,422.128 162.269,427.795 163,433.5C 158.824,424.485 151.657,420.152 141.5,420.5C 141.333,436.837 141.5,453.17 142,469.5C 142.312,472.309 143.812,473.976 146.5,474.5C 140.251,475.65 133.251,475.817 125.5,475C 128.232,474.602 130.065,473.102 131,470.5C 131.5,453.837 131.667,437.17 131.5,420.5C 121.857,420.234 114.691,424.234 110,432.5C 110.287,426.846 111.454,421.346 113.5,416C 129.006,415.172 144.339,415.339 159.5,416.5 Z"/></g>
<g><path style="opacity:1" fill="#97b797" d="M 164.5,415.5 C 177.677,415.171 190.677,415.505 203.5,416.5C 190.656,416.171 177.989,416.505 165.5,417.5C 164.662,417.158 164.328,416.492 164.5,415.5 Z"/></g>
<g><path style="opacity:1" fill="#97b797" d="M 241.5,417.5 C 241.167,417.5 240.833,417.5 240.5,417.5C 234.5,416.167 228.5,416.167 222.5,417.5C 222.167,417.5 221.833,417.5 221.5,417.5C 220.957,417.44 220.624,417.107 220.5,416.5C 227.833,415.167 235.167,415.167 242.5,416.5C 242.376,417.107 242.043,417.44 241.5,417.5 Z"/></g>
<g><path style="opacity:1" fill="#93b493" d="M 263.5,417.5 C 257.833,416.167 252.167,416.167 246.5,417.5C 246.167,417.5 245.833,417.5 245.5,417.5C 248.258,416.182 251.424,415.515 255,415.5C 258.167,415.833 261.333,416.167 264.5,416.5C 264.376,417.107 264.043,417.44 263.5,417.5 Z"/></g>
<g><path style="opacity:1" fill="#96b696" d="M 302.5,417.5 C 302.167,417.5 301.833,417.5 301.5,417.5C 297.167,416.167 292.833,416.167 288.5,417.5C 287.624,417.631 286.957,417.298 286.5,416.5C 289.167,416.167 291.833,415.833 294.5,415.5C 297.59,415.522 300.257,416.188 302.5,417.5 Z"/></g>
<g><path style="opacity:1" fill="#97b797" d="M 325.5,417.5 C 319.5,416.167 313.5,416.167 307.5,417.5C 307.167,417.5 306.833,417.5 306.5,417.5C 305.957,417.44 305.624,417.107 305.5,416.5C 312.833,415.167 320.167,415.167 327.5,416.5C 327.043,417.298 326.376,417.631 325.5,417.5 Z"/></g>
<g><path style="opacity:1" fill="#97b797" d="M 369.5,417.5 C 363.5,416.167 357.5,416.167 351.5,417.5C 351.167,417.5 350.833,417.5 350.5,417.5C 353.428,416.18 356.761,415.514 360.5,415.5C 363.833,415.833 367.167,416.167 370.5,416.5C 370.376,417.107 370.043,417.44 369.5,417.5 Z"/></g>
<g><path style="opacity:1" fill="#eaedea" d="M 164.5,415.5 C 164.328,416.492 164.662,417.158 165.5,417.5C 167.888,418.219 169.388,419.885 170,422.5C 170.667,438.167 170.667,453.833 170,469.5C 168.924,472.079 167.091,473.746 164.5,474.5C 166.929,461.874 167.096,449.207 165,436.5C 159.465,433.983 153.965,431.316 148.5,428.5C 147.522,428.977 146.689,429.643 146,430.5C 145.217,445.199 145.383,459.865 146.5,474.5C 143.812,473.976 142.312,472.309 142,469.5C 141.5,453.17 141.333,436.837 141.5,420.5C 151.657,420.152 158.824,424.485 163,433.5C 162.269,427.795 161.103,422.128 159.5,416.5C 160.583,416.539 161.583,416.873 162.5,417.5C 163.182,416.757 163.849,416.091 164.5,415.5 Z"/></g>
<g><path style="opacity:1" fill="#377536" d="M 165.5,417.5 C 177.989,416.505 190.656,416.171 203.5,416.5C 206.206,416.688 208.539,417.688 210.5,419.5C 213.429,425.266 212.429,430.433 207.5,435C 204.659,436.586 201.993,438.42 199.5,440.5C 206.867,449.892 212.7,460.226 217,471.5C 220.408,475.483 223.408,475.15 226,470.5C 226.667,454.167 226.667,437.833 226,421.5C 225.34,419.676 224.173,418.343 222.5,417.5C 228.5,416.167 234.5,416.167 240.5,417.5C 239.206,418.29 238.039,419.29 237,420.5C 236.333,437.167 236.333,453.833 237,470.5C 237.748,472.751 239.248,474.084 241.5,474.5C 228.5,475.833 215.5,475.833 202.5,474.5C 205.999,471.809 206.499,468.476 204,464.5C 201.065,458.573 197.732,452.906 194,447.5C 192.883,445.876 191.383,444.876 189.5,444.5C 186.275,445.409 183.109,446.409 180,447.5C 179.333,454.5 179.333,461.5 180,468.5C 180.2,470.32 181.034,471.653 182.5,472.5C 183.058,473.79 184.058,474.623 185.5,475C 178.321,475.821 171.321,475.655 164.5,474.5C 167.091,473.746 168.924,472.079 170,469.5C 170.667,453.833 170.667,438.167 170,422.5C 169.388,419.885 167.888,418.219 165.5,417.5 Z"/></g>
<g><path style="opacity:1" fill="#397738" d="M 246.5,417.5 C 252.167,416.167 257.833,416.167 263.5,417.5C 262.883,417.611 262.383,417.944 262,418.5C 261.333,420.833 261.333,423.167 262,425.5C 266.128,438.884 270.461,452.218 275,465.5C 280.6,450.804 285.766,435.971 290.5,421C 290.613,419.301 289.947,418.134 288.5,417.5C 292.833,416.167 297.167,416.167 301.5,417.5C 300.504,417.414 299.671,417.748 299,418.5C 290.915,436.431 284.248,454.765 279,473.5C 279.75,474.126 280.584,474.626 281.5,475C 275.833,475.667 270.167,475.667 264.5,475C 266.487,472.53 266.987,469.697 266,466.5C 261,452.167 256,437.833 251,423.5C 250.208,420.894 248.708,418.894 246.5,417.5 Z"/></g>
<g><path style="opacity:1" fill="#357435" d="M 307.5,417.5 C 313.5,416.167 319.5,416.167 325.5,417.5C 324.206,418.29 323.039,419.29 322,420.5C 321.333,437.167 321.333,453.833 322,470.5C 322.935,473.102 324.768,474.602 327.5,475C 320.174,475.5 312.841,475.666 305.5,475.5C 305.5,474.833 305.833,474.5 306.5,474.5C 308.708,473.977 310.208,472.644 311,470.5C 311.667,454.167 311.667,437.833 311,421.5C 310.34,419.676 309.173,418.343 307.5,417.5 Z"/></g>
<g><path style="opacity:1" fill="#397738" d="M 351.5,417.5 C 357.5,416.167 363.5,416.167 369.5,417.5C 367.623,418.659 367.123,420.326 368,422.5C 374,439.167 380,455.833 386,472.5C 386.903,473.701 388.069,474.535 389.5,475C 382.5,475.667 375.5,475.667 368.5,475C 369.416,474.722 370.082,474.222 370.5,473.5C 372.876,472.488 373.876,470.655 373.5,468C 370.81,456.646 363.643,450.146 352,448.5C 350.564,448.559 349.231,448.892 348,449.5C 346.197,455.242 344.197,460.909 342,466.5C 340.913,469.614 341.746,471.947 344.5,473.5C 345.167,474.167 345.833,474.833 346.5,475.5C 340.491,475.666 334.491,475.499 328.5,475C 331.333,473.5 333.5,471.333 335,468.5C 340.667,453.5 346.333,438.5 352,423.5C 352.789,421.288 352.622,419.288 351.5,417.5 Z"/></g>
<g><path style="opacity:1" fill="#eff0ef" d="M 221.5,417.5 C 221.833,417.5 222.167,417.5 222.5,417.5C 224.173,418.343 225.34,419.676 226,421.5C 226.667,437.833 226.667,454.167 226,470.5C 223.408,475.15 220.408,475.483 217,471.5C 212.7,460.226 206.867,449.892 199.5,440.5C 201.993,438.42 204.659,436.586 207.5,435C 212.429,430.433 213.429,425.266 210.5,419.5C 212.888,420.219 214.388,421.885 215,424.5C 215.667,427.167 215.667,429.833 215,432.5C 212.779,437.117 209.946,441.283 206.5,445C 210.98,452.125 214.813,459.625 218,467.5C 219.079,469.394 220.413,469.727 222,468.5C 222.667,454.5 222.667,440.5 222,426.5C 220.48,423.512 220.314,420.512 221.5,417.5 Z"/></g>
<g><path style="opacity:1" fill="#f0f1f0" d="M 240.5,417.5 C 240.833,417.5 241.167,417.5 241.5,417.5C 242.833,420.167 244.167,420.167 245.5,417.5C 245.833,417.5 246.167,417.5 246.5,417.5C 248.708,418.894 250.208,420.894 251,423.5C 256,437.833 261,452.167 266,466.5C 266.987,469.697 266.487,472.53 264.5,475C 270.167,475.667 275.833,475.667 281.5,475C 280.584,474.626 279.75,474.126 279,473.5C 284.248,454.765 290.915,436.431 299,418.5C 299.671,417.748 300.504,417.414 301.5,417.5C 301.833,417.5 302.167,417.5 302.5,417.5C 303.634,419.781 304.968,419.781 306.5,417.5C 306.833,417.5 307.167,417.5 307.5,417.5C 309.173,418.343 310.34,419.676 311,421.5C 311.667,437.833 311.667,454.167 311,470.5C 310.208,472.644 308.708,473.977 306.5,474.5C 307.605,458.525 307.772,442.525 307,426.5C 306,424.833 305,423.167 304,421.5C 295.3,439.928 287.966,458.928 282,478.5C 277.443,482.676 272.276,483.509 266.5,481C 264.951,479.786 263.785,478.286 263,476.5C 258.273,459.985 252.939,443.651 247,427.5C 245.16,421.851 243.16,421.518 241,426.5C 240.228,442.525 240.395,458.525 241.5,474.5C 239.248,474.084 237.748,472.751 237,470.5C 236.333,453.833 236.333,437.167 237,420.5C 238.039,419.29 239.206,418.29 240.5,417.5 Z"/></g>
<g><path style="opacity:1" fill="#f5f5f5" d="M 181.5,442.5 C 180.51,436.355 180.177,430.022 180.5,423.5C 180.953,422.542 181.619,421.708 182.5,421C 187.5,420.333 192.5,420.333 197.5,421C 202.54,423.196 203.707,426.696 201,431.5C 195.579,437.09 189.079,440.757 181.5,442.5 Z"/></g>
<g><path style="opacity:1" fill="#e7e9e6" d="M 357.5,423.5 C 361.759,432.109 364.925,441.109 367,450.5C 361.797,446.764 355.964,444.597 349.5,444C 352.586,437.328 355.253,430.494 357.5,423.5 Z"/></g>
<g><path style="opacity:1" fill="#8aac8a" d="M 180.5,423.5 C 180.177,430.022 180.51,436.355 181.5,442.5C 181.44,443.043 181.107,443.376 180.5,443.5C 179.182,436.678 179.182,430.011 180.5,423.5 Z"/></g>
<g><path style="opacity:1" fill="#e0e5e0" d="M 202.5,474.5 C 201.292,465.251 197.292,457.418 190.5,451C 187.364,449.959 184.864,450.793 183,453.5C 182.5,459.825 182.334,466.158 182.5,472.5C 181.034,471.653 180.2,470.32 180,468.5C 179.333,461.5 179.333,454.5 180,447.5C 183.109,446.409 186.275,445.409 189.5,444.5C 191.383,444.876 192.883,445.876 194,447.5C 197.732,452.906 201.065,458.573 204,464.5C 206.499,468.476 205.999,471.809 202.5,474.5 Z"/></g>
<g><path style="opacity:1" fill="#e5e8e5" d="M 370.5,473.5 C 370.287,463.12 365.12,456.787 355,454.5C 351.765,454.283 349.432,455.617 348,458.5C 345.897,463.302 344.731,468.302 344.5,473.5C 341.746,471.947 340.913,469.614 342,466.5C 344.197,460.909 346.197,455.242 348,449.5C 349.231,448.892 350.564,448.559 352,448.5C 363.643,450.146 370.81,456.646 373.5,468C 373.876,470.655 372.876,472.488 370.5,473.5 Z"/></g>
<g><path style="opacity:1" fill="#f2f2f2" d="M 325.5,417.5 C 325.475,435.079 325.641,452.745 326,470.5C 328.726,473.152 330.726,472.485 332,468.5C 338.876,451.701 345.043,434.701 350.5,417.5C 350.833,417.5 351.167,417.5 351.5,417.5C 352.622,419.288 352.789,421.288 352,423.5C 346.333,438.5 340.667,453.5 335,468.5C 333.5,471.333 331.333,473.5 328.5,475C 334.491,475.499 340.491,475.666 346.5,475.5C 345.721,480.417 342.721,482.75 337.5,482.5C 334.317,481.913 331.151,481.246 328,480.5C 321.525,482.708 315.025,482.874 308.5,481C 307.029,479.417 306.029,477.583 305.5,475.5C 312.841,475.666 320.174,475.5 327.5,475C 324.768,474.602 322.935,473.102 322,470.5C 321.333,453.833 321.333,437.167 322,420.5C 323.039,419.29 324.206,418.29 325.5,417.5 Z"/></g>
</svg>
